<?xml version="1.0" standalone="no"?><!DOCTYPE svg PUBLIC "-//W3C//DTD SVG 1.1//EN" "http://www.w3.org/Graphics/SVG/1.1/DTD/svg11.dtd"><svg t="1576143217597" class="icon" viewBox="0 0 1024 1024" version="1.1" xmlns="http://www.w3.org/2000/svg" p-id="2464" id="mx_n_1576143217603" data-spm-anchor-id="a313x.7781069.0.i18" xmlns:xlink="http://www.w3.org/1999/xlink" width="200" height="200"><defs><style type="text/css"></style></defs><path d="M97 284.77c-16.57 0-30-13.43-30-30V137.04c0-38.6 31.4-70 70-70h118.05c16.57 0 30 13.43 30 30s-13.43 30-30 30H137c-5.51 0-10 4.49-10 10v117.73c0 16.57-13.43 30-30 30z" fill="#1890ff" p-id="2465" data-spm-anchor-id="a313x.7781069.0.i22" class="selected"></path><path d="M927 284.77c-16.57 0-30-13.43-30-30v-117.8c0-5.51-4.49-10-10-10H767.15c-16.57 0-30-13.43-30-30s13.43-30 30-30H887c38.6 0 70 31.4 70 70v117.8c0 16.57-13.44 30-30 30z" fill="#1890ff" p-id="2466" data-spm-anchor-id="a313x.7781069.0.i20" class="selected"></path><path d="M887 956.96H767.15c-16.57 0-30-13.43-30-30s13.43-30 30-30H887c5.51 0 10-4.49 10-10V766.54c0-16.57 13.43-30 30-30s30 13.43 30 30v120.42c0 38.6-31.41 70-70 70z" fill="#1890ff" p-id="2467" data-spm-anchor-id="a313x.7781069.0.i23" class="selected"></path><path d="M255.05 957.03H137c-38.6 0-70-31.4-70-70V766.62c0-16.57 13.43-30 30-30s30 13.43 30 30v120.42c0 5.51 4.49 10 10 10h118.05c16.57 0 30 13.43 30 30s-13.43 29.99-30 29.99z" fill="#1890ff" p-id="2468" data-spm-anchor-id="a313x.7781069.0.i21" class="selected"></path><path d="M601.38 957.04c-10.5 0-20.69-5.52-26.19-15.33-8.11-14.45-2.97-32.74 11.48-40.84 79.76-44.75 213.57-154.98 213.57-390.46v-93.84c0-159.69-129.92-289.6-289.6-289.6s-289.6 129.92-289.6 289.6c0 16.57-13.43 30-30 30s-30-13.43-30-30c0-47.18 9.25-92.97 27.49-136.09 17.61-41.63 42.81-79.02 74.91-111.12s69.48-57.3 111.12-74.91c43.12-18.24 88.91-27.49 136.09-27.49s92.97 9.25 136.09 27.49c41.63 17.61 79.02 42.81 111.12 74.91 32.1 32.1 57.3 69.48 74.91 111.12 18.24 43.12 27.49 88.91 27.49 136.09v93.84c0 110.74-27.31 208.56-81.19 290.74-51.92 79.2-117.31 126.4-163.02 152.05-4.66 2.6-9.7 3.84-14.67 3.84z" fill="#bfbfbf" p-id="2469" data-spm-anchor-id="a313x.7781069.0.i19" class=""></path><path d="M229.14 762.02c-14.75 0-27.6-10.88-29.68-25.9-2.27-16.41 9.2-31.56 25.61-33.83 171.97-23.77 255.57-119.32 255.57-292.1 0-16.57 13.43-30 30-30s30 13.43 30 30c0 202.18-106.28 323.74-307.35 351.53-1.4 0.2-2.78 0.3-4.15 0.3z" fill="#1afa29" p-id="2470" data-spm-anchor-id="a313x.7781069.0.i16" class=""></path><path d="M319.03 899.93c-15.55 0-28.71-12-29.88-27.76-1.24-16.52 11.16-30.92 27.68-32.15 66.86-5 149.15-41.11 209.65-91.99 53.06-44.63 116.31-121.95 116.31-236.89v-94.58c0-72.67-59.12-131.79-131.79-131.79h-0.66c-72.3 0-131.12 58.82-131.12 131.12 0 50.3-19.54 97.63-55.01 133.29s-82.71 55.43-133.01 55.68h-0.15c-16.5 0-29.91-13.33-30-29.85-0.08-16.57 13.28-30.07 29.85-30.15 70.76-0.35 128.32-58.21 128.32-128.97 0-105.39 85.74-191.12 191.12-191.12h0.66c105.75 0 191.79 86.04 191.79 191.79v94.58c0 57.79-13.46 112.74-40.01 163.31-23.29 44.37-56.16 84.57-97.68 119.5-70.58 59.36-163.99 99.94-243.79 105.9-0.77 0.05-1.53 0.08-2.28 0.08z" fill="#f4ea2a" p-id="2471" data-spm-anchor-id="a313x.7781069.0.i17" class=""></path></svg>