<?xml version="1.0" standalone="no"?><!DOCTYPE svg PUBLIC "-//W3C//DTD SVG 1.1//EN" "http://www.w3.org/Graphics/SVG/1.1/DTD/svg11.dtd"><svg t="1576143797580" class="icon" viewBox="0 0 1024 1024" version="1.1" xmlns="http://www.w3.org/2000/svg" p-id="4379" id="mx_n_1576143797586" xmlns:xlink="http://www.w3.org/1999/xlink" width="200" height="200"><defs><style type="text/css"></style></defs><path d="M811.56 555.59c-4.65 0-9.36-1.08-13.77-3.37-14.71-7.62-20.46-25.72-12.85-40.43 14.79-28.57 33.7-50.29 51.98-71.29C869.16 403.47 897 371.49 897 305.94 897 207.27 816.73 127 718.06 127c-98.66 0-178.93 80.27-178.93 178.93 0 65.55 27.84 97.54 60.07 134.57 18.28 21 37.18 42.72 51.98 71.29 7.62 14.71 1.87 32.82-12.85 40.43-14.71 7.62-32.82 1.87-40.43-12.85-11.49-22.19-27.26-40.3-43.95-59.48-35.07-40.29-74.82-85.96-74.82-173.96 0-63.82 24.85-123.82 69.98-168.95C594.24 91.86 654.24 67 718.06 67c63.82 0 123.82 24.85 168.95 69.98C932.14 182.11 957 242.11 957 305.94c0 88.01-39.75 133.67-74.82 173.96-16.69 19.18-32.46 37.3-43.95 59.48-5.34 10.3-15.82 16.21-26.67 16.21z" fill="#1890ff" p-id="4380" data-spm-anchor-id="a313x.7781069.0.i34" class="selected"></path><path d="M799.7 641.51H632.59c-16.57 0-30-13.43-30-30s13.43-30 30-30H799.7c16.57 0 30 13.43 30 30s-13.43 30-30 30zM757.92 732.66h-83.55c-16.57 0-30-13.43-30-30s13.43-30 30-30h83.55c16.57 0 30 13.43 30 30s-13.43 30-30 30z" fill="#FF4E83" p-id="4381"></path><path d="M689.48 426.45c-7.8 0-15.6-3.03-21.48-9.05-11.57-11.86-11.33-30.85 0.53-42.42l34.4-33.55h-43.45a30.004 30.004 0 0 1-21.02-51.41l86.86-85.29c11.82-11.61 30.82-11.43 42.42 0.39 11.61 11.82 11.44 30.82-0.39 42.42l-34.5 33.88h43.8c12.2 0 23.19 7.39 27.79 18.69 4.6 11.3 1.9 24.26-6.84 32.78l-87.17 85.03c-5.84 5.7-13.4 8.53-20.95 8.53z" fill="#FFC061" p-id="4382" data-spm-anchor-id="a313x.7781069.0.i33" class=""></path><path d="M619.21 957H404.79c-45.59 0-89.83-8.94-131.49-26.56-40.23-17.01-76.35-41.37-107.36-72.38-31.01-31.01-55.36-67.13-72.38-107.36C75.94 709.03 67 664.79 67 619.21V404.79c0-45.59 8.94-89.83 26.56-131.49 17.01-40.23 41.37-76.35 72.38-107.36 31.01-31.01 67.13-55.36 107.36-72.38C314.97 75.94 359.21 67 404.79 67h42.29c16.57 0 30 13.43 30 30s-13.43 30-30 30h-42.29C251.62 127 127 251.62 127 404.79V619.2C127 772.38 251.62 897 404.79 897H619.2C772.38 897 897 772.38 897 619.21v-44.38c0-16.57 13.43-30 30-30s30 13.43 30 30v44.38c0 45.59-8.94 89.83-26.56 131.49-17.01 40.23-41.37 76.35-72.38 107.36-31.01 31.01-67.13 55.36-107.36 72.38C709.03 948.06 664.79 957 619.21 957z" fill="#1890ff" p-id="4383" data-spm-anchor-id="a313x.7781069.0.i35" class="selected"></path><path d="M222.05 483.82c-20.31 0-36.83-16.52-36.83-36.83s16.52-36.83 36.83-36.83 36.83 16.52 36.83 36.83-16.52 36.83-36.83 36.83z" fill="#352E70" p-id="4384"></path><path d="M384.09 483.82c-20.31 0-36.83-16.52-36.83-36.83s16.52-36.83 36.83-36.83 36.83 16.52 36.83 36.83-16.52 36.83-36.83 36.83z" fill="#352E70" p-id="4385"></path><path d="M316.87 611.78h-37.61c-16.57 0-30-13.43-30-30s13.43-30 30-30h37.61c16.57 0 30 13.43 30 30s-13.43 30-30 30z" fill="#352E70" p-id="4386"></path></svg>